<?xml version="1.0" standalone="no"?>
<!DOCTYPE svg PUBLIC "-//W3C//DTD SVG 20010904//EN"
 "http://www.w3.org/TR/2001/REC-SVG-20010904/DTD/svg10.dtd">
<svg version="1.0" xmlns="http://www.w3.org/2000/svg"
 width="157.762028pt" height="247.213823pt" viewBox="0 0 157.762028 247.213823"
 preserveAspectRatio="xMidYMid meet">
<metadata>
Created by Potrace Professional 1.1m
</metadata>
<g transform="translate(-70.080488,275.713823) rotate(-360.00) scale(0.095238,-0.095238)"
fill="#000000" stroke="none">
<path d="M983 2881 c-121 -38 -197 -116 -233 -241 -33 -114 -7 -210 93 -334
72 -89 96 -159 89 -257 -6 -81 -27 -127 -100 -218 -135 -168 -128 -319 23
-488 68 -77 95 -174 77 -274 -12 -69 -38 -119 -92 -182 -75 -87 -89 -123 -89
-236 0 -85 4 -108 25 -151 59 -119 172 -189 306 -190 69 0 89 5 150 35 129 63
192 176 183 326 -5 91 -26 140 -92 216 -72 83 -97 148 -96 249 1 171 145 313
319 314 100 1 163 -23 239 -91 91 -82 136 -102 236 -107 108 -6 183 20 253 88
174 170 127 453 -93 561 -121 58 -262 38 -370 -53 -75 -64 -132 -93 -203 -104
-166 -26 -328 80 -374 244 -33 115 -7 218 82 321 78 91 96 137 96 248 0 82 -4
101 -28 147 -33 64 -109 136 -172 164 -63 28 -165 34 -229 13z"/>
<path d="M1961 2887 c-108 -27 -202 -109 -239 -207 -30 -79 -26 -206 9 -273
36 -69 91 -125 157 -157 51 -25 73 -29 149 -29 76 0 98 4 149 29 114 56 178
154 185 286 5 108 -21 183 -88 252 -81 84 -218 125 -322 99z"/>
<path d="M1982 966 c-108 -27 -202 -109 -239 -208 -30 -79 -26 -205 9 -273 36
-68 91 -124 157 -157 51 -25 73 -29 149 -29 76 0 98 4 149 29 114 57 178 154
185 286 5 108 -21 183 -88 253 -81 83 -218 125 -322 99z"/>
</g>
</svg>
